<svg width="29" height="28" viewBox="0 0 29 28" fill="none" xmlns="http://www.w3.org/2000/svg">
<path d="M14.5001 28C22.232 28 28.5001 21.732 28.5001 14C28.5001 6.26801 22.232 0 14.5001 0C6.76807 0 0.500061 6.26801 0.500061 14C0.500061 21.732 6.76807 28 14.5001 28Z" fill="#F44336"/>
<path opacity="0.2" d="M22.3751 13.5625C22.3313 11.1562 20.3626 9.01249 17.9563 9.01249C16.5563 9.01249 15.3313 9.75624 14.5001 10.8062C13.6688 9.71249 12.4438 9.01249 11.0438 9.01249C8.63755 9.01249 6.6688 11.1562 6.62505 13.5625V13.6062V13.65V13.825C6.8438 19.9937 14.4126 22.4875 14.4126 22.4875C14.4126 22.4875 22.1126 19.9937 22.3751 13.825C22.3751 13.7375 22.3751 13.6937 22.3751 13.65C22.3751 13.65 22.3751 13.6062 22.3751 13.5625Z" fill="#231F20"/>
<path d="M22.3751 12.6875C22.3313 10.2812 20.3626 8.1375 17.9563 8.1375C16.5563 8.1375 15.3313 8.88125 14.5001 9.93125C13.6688 8.8375 12.4438 8.1375 11.0438 8.1375C8.63755 8.1375 6.6688 10.2812 6.62505 12.6875V12.7312V12.775V12.95C6.8438 19.1187 14.4126 21.6125 14.4126 21.6125C14.4126 21.6125 22.1126 19.1187 22.3751 12.95C22.3751 12.8625 22.3751 12.8187 22.3751 12.775C22.3751 12.775 22.3751 12.7312 22.3751 12.6875Z" fill="white"/>
</svg>
