<svg xmlns="http://www.w3.org/2000/svg" width="160" height="138" fill="none" viewBox="0 0 160 138"><mask id="mask0_54_140" style="mask-type:luminance" width="160" height="39" x="0" y="99" maskUnits="userSpaceOnUse"><path fill="#fff" d="M0.111816 99.1301H159.112V138H0.111816V99.1301Z"/></mask><g mask="url(#mask0_54_140)"><path fill="#FDA214" d="M98.9295 134.016C108.216 133.547 117.935 133.448 127.002 132.828C128.627 132.719 130.403 132.557 130.971 132.229C124.544 131.526 116.211 132.047 109.648 131.396C108.211 131.255 106.732 130.922 107.57 130.646C108.044 130.49 109.049 130.443 109.945 130.411C114.607 130.245 119.268 130.078 123.93 129.917C117.252 129.083 108.752 129.307 101.091 128.979C100.133 128.938 99.0337 128.859 98.7212 128.672C98.2316 128.37 100.081 128.141 101.586 128.057C113.216 127.427 126.013 127.74 136.945 126.719C137.523 126.661 138.122 126.594 138.607 126.51C145.471 126.078 152.232 125.521 158.831 124.807C138.95 123.281 87.091 122.292 83.0806 121.448C85.3618 120.651 89.1952 120.318 92.8306 120.073C106.784 119.146 121.393 118.953 135.023 117.719C137.461 117.5 140.133 117.177 140.987 116.521C131.325 115.125 118.799 116.161 108.935 114.875C106.778 114.594 104.56 113.932 105.81 113.38C106.528 113.063 108.039 112.974 109.388 112.911C116.393 112.583 123.398 112.25 130.403 111.922C120.367 110.271 107.591 110.719 96.0806 110.063C94.6379 109.984 92.9868 109.828 92.5181 109.453C91.7785 108.854 94.5597 108.396 96.8254 108.234C114.299 106.974 133.534 107.604 149.966 105.563C151.747 105.344 153.695 105.01 153.888 104.484C141.143 103.052 128.117 101.802 114.872 100.75C105.497 100.005 97.7368 99.6458 88.4347 100.438C79.4764 101.203 68.0077 100.354 58.7472 100.24C48.2889 100.109 37.6743 100.099 27.5129 100.781C17.3514 101.464 7.57536 102.911 1.5389 105.219C0.804528 105.5 0.0961939 105.844 0.465986 106.172C0.882653 106.547 2.45557 106.719 3.84619 106.828C17.4452 107.896 31.8306 107.875 45.966 108.125C50.5597 108.203 55.5129 108.354 58.8983 109.193C52.7837 109.802 46.6691 110.411 40.5545 111.021C39.3879 111.135 37.9868 111.344 38.1274 111.677C38.2785 112.021 39.8983 112.135 41.1743 112.161C46.6014 112.286 52.0285 112.411 57.4556 112.531C61.9972 112.635 67.2837 112.865 69.4399 113.948C54.7368 114.594 40.1274 115.396 25.6639 116.354C19.6379 116.76 13.4139 117.214 8.69515 118.302C28.8618 118.224 49.0389 118.313 69.1847 118.573C71.492 118.599 74.4295 118.781 74.742 119.396C58.2264 119.776 41.8306 120.531 25.7889 121.661C23.3306 121.833 20.5181 122.099 19.7264 122.75C32.9764 123.042 46.8827 122.385 59.2212 123.714C47.8618 124.198 36.6066 124.865 25.5389 125.714C24.2785 125.807 22.9712 125.911 22.0024 126.151C21.0389 126.391 20.5337 126.802 21.2108 127.104C21.9504 127.438 23.6222 127.484 25.0493 127.5C32.5441 127.563 40.0441 127.625 47.5389 127.688C54.1899 127.891 61.0129 127.917 67.7472 128.005C70.8045 128.042 74.0962 128.12 76.3566 128.542C72.2837 128.849 68.216 129.151 64.1483 129.458C63.3722 129.516 62.4399 129.625 62.5337 129.792C62.6327 129.964 63.7108 130.021 64.5597 130.036C68.1691 130.099 71.7837 130.161 75.3931 130.219C78.4139 130.271 81.9347 130.391 83.367 130.932C73.5806 131.255 63.8618 131.661 54.2368 132.146C50.2316 132.344 46.0858 132.578 42.9452 133.12C56.367 133.083 69.7941 133.13 83.2004 133.26C84.7316 133.271 86.6899 133.365 86.8931 133.672C75.9035 133.865 64.9972 134.245 54.3254 134.813C52.6847 134.896 50.8149 135.031 50.2889 135.359C59.1066 135.505 68.3566 135.177 76.5702 135.844C69.0077 136.089 61.5181 136.422 54.1535 136.849C53.3149 136.896 52.4452 136.948 51.8045 137.068C51.1587 137.188 50.8254 137.396 51.2733 137.547C51.7681 137.714 52.8774 137.74 53.8306 137.745C60.9504 137.792 68.0649 137.839 75.1847 137.885C98.0337 138.026 121.633 138.125 142.846 136.391C129.617 135.625 95.1118 135.125 92.4399 134.703C93.9608 134.302 96.5129 134.135 98.9295 134.016Z"/></g><mask id="mask1_54_140" style="mask-type:luminance" width="147" height="106" x="2" y="0" maskUnits="userSpaceOnUse"><path fill="#fff" d="M2.11707 0H148.784V105.797H2.11707V0Z"/></mask><g mask="url(#mask1_54_140)"><path fill="#FDA214" d="M147.935 72.2083C147.935 73.4791 147.904 74.7395 147.836 75.9895C147.831 76.1302 147.82 76.2604 147.815 76.401C147.258 86.0885 144.773 95.2604 140.737 103.552C140.529 103.995 140.305 104.437 140.081 104.875H10.3931C7.71602 99.651 5.65873 94.0573 4.3254 88.1823C4.25248 87.875 4.18477 87.5625 4.11707 87.25C3.08581 82.3958 2.53894 77.3698 2.53894 72.2083C2.53894 61.0833 5.07019 50.552 9.60144 41.1458C9.60144 41.1406 9.60144 41.1406 9.60144 41.1406C10.5129 39.2395 11.5025 37.3906 12.5754 35.5885C13.8879 33.3802 15.315 31.2448 16.8566 29.1927C17.8462 27.8698 18.8775 26.5781 19.9608 25.3333V25.3281C21.7889 23.2031 23.7421 21.1823 25.8046 19.2812C28.0129 17.25 30.341 15.3541 32.7889 13.6041C34.5337 12.3541 36.3358 11.1823 38.19 10.0885C40.0702 8.98433 42.0025 7.95829 43.9816 7.02079C53.4504 2.53642 64.0494 0.026001 75.2369 0.026001C115.388 0.026001 147.935 32.3437 147.935 72.2083Z"/></g><path fill="#ED8F07" d="M147.815 76.4011C147.258 86.0886 144.773 95.2604 140.737 103.552C140.529 103.995 140.305 104.438 140.081 104.875H10.3931C7.71607 99.6511 5.65877 94.0573 4.32544 88.1823C9.4869 83.6459 15.0963 79.6823 21.0442 76.4011C27.289 72.9479 34.0129 70.2084 41.0286 69.625C48.0494 69.0417 55.4244 70.7969 60.8879 75.5209C66.4348 80.3125 69.9088 87.9479 76.4921 90.9167C85.3775 94.9219 95.2838 88.6407 104.935 88.5157C112.581 88.4115 120.742 92.125 127.544 88.4115C130.846 86.6042 133.174 83.3125 136.107 80.8854C139.435 78.125 143.601 76.599 147.815 76.4011Z"/><path fill="#fff" d="M103.31 8.79696C95.3619 9.22925 84.664 9.77091 70.7994 10.4376C64.7786 10.1928 58.7525 9.95842 52.7525 9.67196C49.7004 9.52612 46.6536 9.37508 43.6067 9.21883C66.7265 8.55216 88.0025 7.95842 102.544 7.6355L103.31 8.79696Z"/><path fill="#fff" d="M22.8514 22.1615C34.5129 21.9115 58.0129 21.5052 96.7941 20.8906C102.414 20.9531 108.034 21.0104 113.648 21.0833L114.617 21.6927C73.0597 22.1042 38.1639 22.4167 22.5493 22.4792L22.8514 22.1615Z"/><path fill="#fff" d="M7.35661 46.3177C11.8722 46.0469 18.8149 45.6823 28.7004 45.2031C32.0024 45.4062 35.3045 45.6042 38.591 45.8333C40.2629 45.9531 41.9347 46.0677 43.6066 46.1927C28.4816 46.5625 14.7941 46.8802 7.11182 46.9635L7.35661 46.3177Z"/><path fill="#fff" d="M11.1952 38.0208C12.315 37.9844 13.4348 37.9427 14.5546 37.9062C126.049 36.0677 85.3046 36.9792 10.9348 38.5052L11.1952 38.0208Z"/></svg>